<svg xmlns="http://www.w3.org/2000/svg" x="0px" y="0px" ViewBox="0 0 64 64" height="64" width="64"><path style="stroke-width:0.124998" d="m 63.985298,24.496072 c -0.09788,-0.77875 -0.6705,-1.414001 -1.43487,-1.592122 L 56.136703,21.409702 C 55.496829,18.097841 54.23546,15.389101 52.381217,13.348484 49.759227,10.462994 46.054741,9 41.370504,9 c -4.368611,0 -7.651222,1.39887 -9.757086,4.15786 -2.658113,3.482612 -2.66912,8.278718 -2.308245,11.369586 -5.413601,-1.599245 -14.047694,-5.026984 -15.728066,-9.627468 -0.26337,-0.720997 -0.939496,-1.208621 -1.70687,-1.23087 -0.767495,-0.02362 -1.470489,0.425498 -1.775243,1.129996 -2.3842388,5.513231 -2.3416138,11.418454 0.123754,17.077307 0.33975,0.779878 0.703618,1.504621 1.071617,2.1685 L 2.4343992,31.277043 c -0.6032473,-0.188626 -1.2607454,-0.06053 -1.74924324,0.340623 -0.48849819,0.401125 -0.74199723,1.02125 -0.67437251,1.64962 0.02374991,0.220877 0.62274767,5.468857 4.14398445,10.741583 3.2703633,4.897109 9.7482121,10.734586 22.0366681,10.734586 6.266227,0 11.897333,-1.595618 16.736942,-4.742359 3.63736,-2.365111 6.772846,-5.561224 9.319338,-9.499464 2.107492,-3.259234 3.500489,-6.916599 4.057985,-10.636087 l 6.683478,-3.471609 c 0.696619,-0.361747 1.093994,-1.119124 0.996119,-1.897864 z m -10.277337,2.493234 c -0.556748,0.289126 -0.931871,0.837501 -0.999745,1.461121 -0.379251,3.486613 -1.627494,6.949847 -3.609487,10.015092 -3.695616,5.715228 -10.669715,12.527954 -22.907293,12.527954 -8.474845,0 -14.812442,-3.009742 -18.8363045,-8.945721 C 5.838387,39.810384 4.9380148,37.545393 4.4150173,35.824902 l 11.0709617,3.460239 c 0.821244,0.256995 1.712494,-0.07885 2.160493,-0.813873 0.447867,-0.735126 0.337742,-1.680874 -0.26713,-2.293241 -0.077,-0.07798 -6.810472,-7.040475 -4.967105,-16.311063 2.093994,2.227733 5.32586,4.259233 9.663965,6.069102 4.708104,1.964116 9.000966,2.943109 9.181343,2.983862 0.641248,0.144625 1.310622,-0.05836 1.765619,-0.532754 0.454744,-0.474371 0.627748,-1.153615 0.456374,-1.788111 -0.01937,-0.07185 -1.903494,-7.224478 1.12062,-11.173712 1.378494,-1.800118 3.592987,-2.67524 6.770098,-2.67524 6.479473,0 10.146465,3.301238 11.210084,10.091089 0.01814,0.116121 0.03411,0.23225 0.05027,0.348494 l 0.0026,0.01901 c 0.10638,0.76887 0.675749,1.392745 1.431874,1.568866 l 2.692863,0.62738 z"/><path style="fill:#00ffff;stroke:#000000;stroke-width:0.188235" d="M 23.68004,50.874453 C 19.923352,50.507369 17.240039,49.780173 14.56232,48.403485 10.939488,46.540892 8.1577963,43.733056 6.1287076,39.890619 5.4740233,38.650852 4.4351298,36.070425 4.546031,35.959519 c 0.021055,-0.02104 2.544209,0.744715 5.60701,1.701703 4.069581,1.271565 5.666999,1.739787 5.93375,1.739249 0.685211,-0.0014 1.453133,-0.513667 1.716493,-1.145081 0.0674,-0.161571 0.116012,-0.495856 0.114993,-0.790593 -0.0021,-0.628062 -0.14198,-0.890859 -1.038832,-1.952561 -2.113489,-2.501964 -3.761629,-5.883568 -4.379793,-8.986331 -0.388004,-1.947481 -0.45909,-3.317367 -0.26638,-5.13314 0.168921,-1.591601 0.116945,-1.522237 0.708438,-0.945464 3.125542,3.047771 8.978871,5.93405 16.046563,7.912584 2.281357,0.638643 2.571145,0.69527 3.046971,0.595464 1.091973,-0.229045 1.727301,-1.231463 1.480113,-2.335326 -1.177668,-5.259056 -0.573616,-9.531393 1.660861,-11.746836 0.983629,-0.975252 2.085362,-1.526927 3.750886,-1.878188 0.517838,-0.109214 0.999298,-0.134879 2.522355,-0.134461 1.658138,5e-4 1.983295,0.02092 2.729814,0.171763 2.266005,0.457892 3.82831,1.264879 5.206198,2.689187 1.61768,1.672183 2.5947,3.857814 3.130465,7.003003 0.07034,0.412924 0.17746,0.869631 0.238051,1.014911 0.13843,0.33194 0.512324,0.726011 0.855473,0.901643 0.205398,0.105127 2.753373,0.749117 2.996068,0.757233 0.02937,9.97e-4 -0.66971,0.37935 -1.55344,0.840815 -0.883734,0.461464 -1.710865,0.943109 -1.838071,1.070307 -0.336951,0.336952 -0.478995,0.728058 -0.617852,1.701217 -0.609844,4.273812 -2.380174,8.226239 -5.345394,11.934119 -4.028038,5.036888 -9.197026,8.230275 -15.288379,9.445138 -2.028604,0.404586 -2.798121,0.473851 -5.496469,0.494758 -1.366587,0.01061 -2.620235,0.0059 -2.785883,-0.01021 z"/></svg>